<?xml version="1.0" encoding="utf-8"?>
<!-- Generator: Adobe Illustrator 26.3.1, SVG Export Plug-In . SVG Version: 6.00 Build 0)  -->
<!-- Visual Language for Composing Interactions, created by Marije Baalman and Superposition; https://composinginteractions.art-->
<svg version="1.1" xmlns="http://www.w3.org/2000/svg" xmlns:xlink="http://www.w3.org/1999/xlink" x="0px" y="0px"
	 viewBox="0 0 60.01 62.86" style="enable-background:new 0 0 60.01 62.86;" xml:space="preserve">
<style type="text/css">
	.st0{fill-rule:evenodd;clip-rule:evenodd;fill:#8BFF8B;}
	.st1{fill:none;stroke:#000000;stroke-width:0.5;stroke-linecap:round;stroke-linejoin:round;stroke-miterlimit:10;}
	.st2{fill:none;}
	.st3{fill:none;stroke:#000000;stroke-width:0.5;stroke-miterlimit:10;}
	.st4{font-family:'CMU Typewriter Text Variable Width';font-style:italic;}
	.st5{font-size:7px;}
	.st6{fill:none;stroke:#000000;stroke-width:0.5;stroke-miterlimit:10;stroke-dasharray:9.8884,9.8884;}
	.st7{fill:none;stroke:#000000;stroke-width:0.5;stroke-linecap:round;stroke-linejoin:round;}
	.st8{fill:none;stroke:#000000;stroke-width:0.5;stroke-linecap:round;stroke-linejoin:round;stroke-dasharray:0.9921,8.929;}
	.st9{fill:none;stroke:#000000;stroke-width:0.5;stroke-miterlimit:10;stroke-dasharray:10,10;}
	.st10{fill:url(#SVGID_1_);}
	.st11{fill:url(#SVGID_00000100348237375258275780000014042070803185044143_);}
	.st12{fill:none;stroke:#000000;stroke-width:0.5;stroke-linecap:round;stroke-linejoin:round;stroke-dasharray:0,0.9933;}
	.st13{fill:none;stroke:#000000;stroke-width:0.5;stroke-linecap:round;stroke-linejoin:round;stroke-dasharray:0,1.0044;}
	.st14{fill:none;stroke:#000000;stroke-width:0.5;stroke-linecap:round;stroke-linejoin:round;stroke-dasharray:0.9083,1.8167;}
	.st15{fill:none;stroke:#000000;stroke-width:0.5;stroke-linecap:round;stroke-linejoin:round;stroke-dasharray:0,0.9772;}
	.st16{fill:none;stroke:#000000;stroke-width:0.5;stroke-linecap:round;stroke-linejoin:round;stroke-dasharray:0,1.0509;}
</style>
<g id="Diagrammen">
	<g>
		<path class="st3" d="M54.88,31.43c0-3.02,5.67-6.91,4.78-9.64c-0.92-2.83-7.82-2.63-9.53-4.98c-1.73-2.38,0.58-8.87-1.8-10.6
			c-2.35-1.71-7.81,2.48-10.64,1.56c-2.73-0.89-4.67-7.51-7.69-7.51c-3.02,0-4.96,6.63-7.69,7.51c-2.83,0.92-8.29-3.27-10.64-1.56
			c-2.38,1.73-0.07,8.23-1.8,10.6c-1.71,2.35-8.61,2.16-9.53,4.98c-0.89,2.73,4.78,6.61,4.78,9.64c0,3.02-5.67,6.91-4.78,9.64
			c0.92,2.83,7.82,2.63,9.53,4.98c1.73,2.38-0.58,8.87,1.8,10.6c2.35,1.71,7.81-2.48,10.64-1.56c2.73,0.89,4.67,7.51,7.69,7.51
			c3.02,0,4.96-6.63,7.69-7.51c2.83-0.92,8.29,3.27,10.64,1.56c2.38-1.73,0.07-8.23,1.8-10.6c1.71-2.35,8.61-2.16,9.53-4.98
			C60.55,38.34,54.88,34.45,54.88,31.43z"/>
	</g>
	<rect x="0.48" y="0.25" class="st2" width="59.28" height="62.36"/>
	<text transform="matrix(1 0 0 1 16.347 29.0504)"><tspan x="0" y="0" class="st4 st5">concept </tspan><tspan x="-9.85" y="8.4" class="st4 st5">clarifcations</tspan></text>
</g>
</svg>
