<?xml version="1.0" encoding="utf-8"?>
<!-- Visual Language for Composing Interactions, created by Marije Baalman and Superposition; https://composinginteractions.art-->
<!-- Generator: Adobe Illustrator 26.3.1, SVG Export Plug-In . SVG Version: 6.00 Build 0)  -->
<svg version="1.1" xmlns="http://www.w3.org/2000/svg" xmlns:xlink="http://www.w3.org/1999/xlink" x="0px" y="0px"
	 viewBox="0 0 82.61 62.86" style="enable-background:new 0 0 82.61 62.86;" xml:space="preserve">
<style type="text/css">
	.st0{fill-rule:evenodd;clip-rule:evenodd;fill:#8BFF8B;}
	.st1{fill:none;stroke:#000000;stroke-width:0.5;stroke-linecap:round;stroke-linejoin:round;stroke-miterlimit:10;}
	.st2{fill:none;}
	.st3{fill:none;stroke:#000000;stroke-width:0.5;stroke-miterlimit:10;}
	.st4{fill:none;stroke:#000000;stroke-width:0.5;stroke-miterlimit:10;stroke-dasharray:9.8884,9.8884;}
	.st5{fill:none;stroke:#000000;stroke-width:0.5;stroke-linecap:round;stroke-linejoin:round;}
	.st6{fill:none;stroke:#000000;stroke-width:0.5;stroke-linecap:round;stroke-linejoin:round;stroke-dasharray:0.9921,8.929;}
	.st7{fill:none;stroke:#000000;stroke-width:0.5;stroke-miterlimit:10;stroke-dasharray:10,10;}
	.st8{fill:url(#SVGID_1_);}
	.st9{fill:url(#SVGID_00000182497631862611960270000012422627791213731728_);}
	.st10{font-family:'CMU Typewriter Text Variable Width';font-style:italic;}
	.st11{font-size:18.0453px;}
	.st12{font-size:6.9063px;}
	.st13{fill:none;stroke:#000000;stroke-width:0.5;stroke-linecap:round;stroke-linejoin:round;stroke-dasharray:0,0.9933;}
	.st14{fill:none;stroke:#000000;stroke-width:0.5;stroke-linecap:round;stroke-linejoin:round;stroke-dasharray:0,1.0044;}
	.st15{fill:none;stroke:#000000;stroke-width:0.5;stroke-linecap:round;stroke-linejoin:round;stroke-dasharray:0.9083,1.8167;}
	.st16{fill:none;stroke:#000000;stroke-width:0.5;stroke-linecap:round;stroke-linejoin:round;stroke-dasharray:0,0.9772;}
	.st17{fill:none;stroke:#000000;stroke-width:0.5;stroke-linecap:round;stroke-linejoin:round;stroke-dasharray:0,1.0509;}
</style>
<g id="Diagrammen">
	<rect x="10.25" y="0.25" class="st2" width="62.36" height="62.36"/>
	<text transform="matrix(1 0 0 1 21.3513 35.7389)" class="st10 st11">max</text>
	<rect x="10.25" y="45.06" class="st2" width="50.99" height="16.86"/>
	<text transform="matrix(1 0 0 1 12.2234 58.9098)" class="st10 st12">max</text>
	<rect x="10.25" y="0.25" class="st3" width="62.36" height="62.36"/>
	<g>
		<g>
			<line class="st5" x1="82.07" y1="31.43" x2="82.07" y2="31.43"/>
			<line class="st17" x1="81.02" y1="31.43" x2="73.14" y2="31.43"/>
			<line class="st5" x1="72.61" y1="31.43" x2="72.61" y2="31.43"/>
			<g>
				<polygon points="80.41,29.39 80.07,29.75 81.88,31.43 80.07,33.11 80.41,33.48 82.61,31.43 				"/>
			</g>
		</g>
	</g>
	<g>
		<g>
			<line class="st5" x1="9.71" y1="9.3" x2="9.71" y2="9.3"/>
			<line class="st17" x1="8.66" y1="9.3" x2="0.78" y2="9.3"/>
			<line class="st5" x1="0.25" y1="9.3" x2="0.25" y2="9.3"/>
			<g>
				<polygon points="8.05,7.26 7.71,7.62 9.52,9.3 7.71,10.98 8.05,11.34 10.25,9.3 				"/>
			</g>
		</g>
	</g>
	<g>
		<g>
			<line class="st5" x1="9.71" y1="24.05" x2="9.71" y2="24.05"/>
			<line class="st17" x1="8.66" y1="24.05" x2="0.78" y2="24.05"/>
			<line class="st5" x1="0.25" y1="24.05" x2="0.25" y2="24.05"/>
			<g>
				<polygon points="8.05,22.01 7.71,22.38 9.52,24.05 7.71,25.73 8.05,26.1 10.25,24.05 				"/>
			</g>
		</g>
	</g>
	<g>
		<g>
			<line class="st5" x1="9.71" y1="38.81" x2="9.71" y2="38.81"/>
			<line class="st17" x1="8.66" y1="38.81" x2="0.78" y2="38.81"/>
			<line class="st5" x1="0.25" y1="38.81" x2="0.25" y2="38.81"/>
			<g>
				<polygon points="8.05,36.76 7.71,37.13 9.52,38.81 7.71,40.49 8.05,40.85 10.25,38.81 				"/>
			</g>
		</g>
	</g>
	<g>
		<g>
			<line class="st5" x1="9.71" y1="53.56" x2="9.71" y2="53.56"/>
			<line class="st17" x1="8.66" y1="53.56" x2="0.78" y2="53.56"/>
			<line class="st5" x1="0.25" y1="53.56" x2="0.25" y2="53.56"/>
			<g>
				<polygon points="8.05,51.52 7.71,51.88 9.52,53.56 7.71,55.24 8.05,55.61 10.25,53.56 				"/>
			</g>
		</g>
	</g>
</g>
</svg>
