<?xml version="1.0" encoding="utf-8"?>
<!-- Visual Language for Composing Interactions, created by Marije Baalman and Superposition; https://composinginteractions.art-->
<!-- Generator: Adobe Illustrator 26.3.1, SVG Export Plug-In . SVG Version: 6.00 Build 0)  -->
<svg version="1.1" xmlns="http://www.w3.org/2000/svg" xmlns:xlink="http://www.w3.org/1999/xlink" x="0px" y="0px"
	 viewBox="0 0 63.71 92.71" style="enable-background:new 0 0 63.71 92.71;" xml:space="preserve">
<style type="text/css">
	.st0{fill-rule:evenodd;clip-rule:evenodd;fill:#8BFF8B;}
	.st1{fill:none;stroke:#000000;stroke-width:0.5;stroke-linecap:round;stroke-linejoin:round;stroke-miterlimit:10;}
	.st2{fill:none;}
	.st3{fill:none;stroke:#000000;stroke-width:0.5;stroke-miterlimit:10;}
	.st4{fill:none;stroke:#000000;stroke-width:0.5;stroke-miterlimit:10;stroke-dasharray:9.8884,9.8884;}
	.st5{fill:none;stroke:#000000;stroke-width:0.5;stroke-linecap:round;stroke-linejoin:round;}
	.st6{fill:none;stroke:#000000;stroke-width:0.5;stroke-linecap:round;stroke-linejoin:round;stroke-dasharray:0.9921,8.929;}
	.st7{fill:none;stroke:#000000;stroke-width:0.5;stroke-miterlimit:10;stroke-dasharray:10,10;}
	.st8{fill:url(#SVGID_1_);}
	.st9{fill:url(#SVGID_00000101077190116932308780000009011719974421410717_);}
	.st10{fill:none;stroke:#000000;stroke-width:0.5;stroke-linecap:round;stroke-linejoin:round;stroke-dasharray:0,0.9933;}
	.st11{fill:none;stroke:#000000;stroke-width:0.5;stroke-linecap:round;stroke-linejoin:round;stroke-dasharray:0,1.0044;}
	.st12{font-family:'CMU Typewriter Text Variable Width';font-style:italic;}
	.st13{font-size:7px;}
	.st14{fill:none;stroke:#000000;stroke-width:0.5;stroke-linecap:round;stroke-linejoin:round;stroke-dasharray:0.9083,1.8167;}
	.st15{fill:none;stroke:#000000;stroke-width:0.5;stroke-linecap:round;stroke-linejoin:round;stroke-dasharray:0,0.9772;}
	.st16{fill:none;stroke:#000000;stroke-width:0.5;stroke-linecap:round;stroke-linejoin:round;stroke-dasharray:0,1.0509;}
</style>
<g id="Diagrammen">
	<rect x="0.25" y="74.67" class="st2" width="51.68" height="17.09"/>
	<text transform="matrix(1 0 0 1 2.2499 88.7129)" class="st12 st13">multi switch</text>
	<line class="st3" x1="63.46" y1="43.15" x2="42.39" y2="43.15"/>
	<rect x="0.25" y="29.26" class="st3" width="63.21" height="63.21"/>
	<polyline class="st3" points="0.25,60.86 21.32,60.86 38.98,41.82 	"/>
	<line class="st3" x1="63.46" y1="66.76" x2="42.39" y2="66.76"/>
	<line class="st3" x1="63.46" y1="78.57" x2="42.39" y2="78.57"/>
	<line class="st3" x1="63.46" y1="54.96" x2="42.39" y2="54.96"/>
	<g>
		<g>
			<line class="st3" x1="31.85" y1="17.96" x2="31.85" y2="39.95"/>
			<g>
				<path d="M29.45,36.53c0.12-0.07,0.27-0.04,0.35,0.08l2.05,3.23l2.05-3.23c0.07-0.12,0.23-0.15,0.35-0.08s0.15,0.23,0.08,0.35
					l-2.27,3.56c-0.05,0.07-0.13,0.12-0.21,0.12s-0.17-0.04-0.21-0.12l-2.27-3.56c-0.03-0.04-0.04-0.09-0.04-0.13
					C29.34,36.66,29.38,36.58,29.45,36.53z"/>
			</g>
		</g>
	</g>
	<rect x="0.25" y="0" class="st2" width="63.21" height="17.09"/>
	<text transform="matrix(1 0 0 1 5.1315 14.043)" class="st12 st13">external factor</text>
</g>
</svg>
