<?xml version="1.0" encoding="utf-8"?>
<!-- Visual Language for Composing Interactions, created by Marije Baalman and Superposition; https://composinginteractions.art-->
<!-- Generator: Adobe Illustrator 26.3.1, SVG Export Plug-In . SVG Version: 6.00 Build 0)  -->
<svg version="1.1" xmlns="http://www.w3.org/2000/svg" xmlns:xlink="http://www.w3.org/1999/xlink" x="0px" y="0px"
	 viewBox="0 0 63.71 63.71" style="enable-background:new 0 0 63.71 63.71;" xml:space="preserve">
<style type="text/css">
	.st0{fill-rule:evenodd;clip-rule:evenodd;fill:#8BFF8B;}
	.st1{fill:none;stroke:#000000;stroke-width:0.5;stroke-linecap:round;stroke-linejoin:round;stroke-miterlimit:10;}
	.st2{fill:none;}
	.st3{fill:none;stroke:#000000;stroke-width:0.5;stroke-miterlimit:10;}
	.st4{fill:none;stroke:#000000;stroke-width:0.5;stroke-miterlimit:10;stroke-dasharray:9.8884,9.8884;}
	.st5{fill:none;stroke:#000000;stroke-width:0.5;stroke-linecap:round;stroke-linejoin:round;}
	.st6{fill:none;stroke:#000000;stroke-width:0.5;stroke-linecap:round;stroke-linejoin:round;stroke-dasharray:0.9921,8.929;}
	.st7{fill:none;stroke:#000000;stroke-width:0.5;stroke-miterlimit:10;stroke-dasharray:10,10;}
	.st8{fill:url(#SVGID_1_);}
	.st9{fill:url(#SVGID_00000044866325656970966110000003550098532356603320_);}
	.st10{fill:none;stroke:#000000;stroke-width:0.5;stroke-linecap:round;stroke-linejoin:round;stroke-dasharray:0,0.9933;}
	.st11{fill:none;stroke:#000000;stroke-width:0.5;stroke-linecap:round;stroke-linejoin:round;stroke-dasharray:0,1.0044;}
	.st12{font-family:'CMU Typewriter Text Variable Width';font-style:italic;}
	.st13{font-size:7px;}
	.st14{font-size:6px;}
	.st15{fill:none;stroke:#000000;stroke-width:0.5;stroke-linecap:round;stroke-linejoin:round;stroke-dasharray:0.9083,1.8167;}
	.st16{fill:none;stroke:#000000;stroke-width:0.5;stroke-linecap:round;stroke-linejoin:round;stroke-dasharray:0,0.9772;}
	.st17{fill:none;stroke:#000000;stroke-width:0.5;stroke-linecap:round;stroke-linejoin:round;stroke-dasharray:0,1.0509;}
</style>
<g id="Diagrammen">
	<rect x="0.25" y="45.66" class="st2" width="51.68" height="17.09"/>
	<text transform="matrix(1 0 0 1 2.2499 59.7068)" class="st12 st13">nonlinear</text>
	<rect x="0.25" y="39.4" class="st2" width="31.61" height="8.55"/>
	<text transform="matrix(1 0 0 1 2.2494 44.8973)" class="st12 st14">min</text>
	<rect x="0.25" y="0.25" class="st2" width="31.61" height="14.25"/>
	<text transform="matrix(1 0 0 1 2.2494 7.0831)" class="st12 st14">max</text>
	<rect x="31.86" y="39.4" class="st2" width="31.61" height="8.55"/>
	<text transform="matrix(1 0 0 1 48.4625 44.8973)" class="st12 st14">min</text>
	<rect x="31.86" y="0.25" class="st2" width="31.61" height="14.25"/>
	<text transform="matrix(1 0 0 1 47.7623 7.0831)" class="st12 st14">max</text>
	<rect x="0.25" y="0.25" class="st3" width="63.21" height="63.21"/>
	<polyline class="st3" points="21.23,34.74 21.33,34.74 21.43,34.74 21.53,34.74 21.63,34.73 21.73,34.73 21.83,34.73 21.93,34.73 
		22.03,34.72 22.13,34.72 22.23,34.71 22.33,34.71 22.43,34.7 22.54,34.7 22.64,34.69 22.74,34.68 22.84,34.67 22.94,34.66 
		23.04,34.66 23.14,34.65 23.24,34.64 23.34,34.63 23.44,34.62 23.54,34.6 23.64,34.59 23.74,34.58 23.85,34.57 23.95,34.55 
		24.05,34.54 24.15,34.52 24.25,34.51 24.35,34.49 24.45,34.48 24.55,34.46 24.65,34.44 24.75,34.43 24.85,34.41 24.95,34.39 
		25.05,34.37 25.15,34.35 25.26,34.33 25.36,34.31 25.46,34.29 25.56,34.26 25.66,34.24 25.76,34.22 25.86,34.2 25.96,34.17 
		26.06,34.15 26.16,34.12 26.26,34.09 26.36,34.07 26.46,34.04 26.57,34.01 26.67,33.99 26.77,33.96 26.87,33.93 26.97,33.9 
		27.07,33.87 27.17,33.84 27.27,33.81 27.37,33.77 27.47,33.74 27.57,33.71 27.67,33.67 27.77,33.64 27.88,33.6 27.98,33.57 
		28.08,33.53 28.18,33.49 28.28,33.46 28.38,33.42 28.48,33.38 28.58,33.34 28.68,33.3 28.78,33.26 28.88,33.22 28.98,33.18 
		29.08,33.13 29.19,33.09 29.29,33.05 29.39,33 29.49,32.96 29.59,32.91 29.69,32.86 29.79,32.82 29.89,32.77 29.99,32.72 
		30.09,32.67 30.19,32.62 30.29,32.57 30.39,32.52 30.49,32.47 30.6,32.41 30.7,32.36 30.8,32.31 30.9,32.25 31,32.2 31.1,32.14 
		31.2,32.08 31.3,32.02 31.4,31.96 31.5,31.9 31.6,31.84 31.7,31.78 31.8,31.72 31.91,31.66 32.01,31.59 32.11,31.53 32.21,31.46 
		32.31,31.4 32.41,31.33 32.51,31.26 32.61,31.19 32.71,31.12 32.81,31.05 32.91,30.98 33.01,30.91 33.11,30.83 33.22,30.76 
		33.32,30.68 33.42,30.61 33.52,30.53 33.62,30.45 33.72,30.37 33.82,30.29 33.92,30.21 34.02,30.12 34.12,30.04 34.22,29.96 
		34.32,29.87 34.42,29.78 34.52,29.69 34.63,29.6 34.73,29.51 34.83,29.42 34.93,29.33 35.03,29.23 35.13,29.13 35.23,29.04 
		35.33,28.94 35.43,28.84 35.53,28.74 35.63,28.63 35.73,28.53 35.83,28.42 35.94,28.31 36.04,28.2 36.14,28.09 36.24,27.98 
		36.34,27.86 36.44,27.75 36.54,27.63 36.64,27.51 36.74,27.39 36.84,27.26 36.94,27.14 37.04,27.01 37.14,26.88 37.25,26.75 
		37.35,26.61 37.45,26.47 37.55,26.33 37.65,26.19 37.75,26.05 37.85,25.9 37.95,25.75 38.05,25.59 38.15,25.44 38.25,25.27 
		38.35,25.11 38.45,24.94 38.56,24.77 38.66,24.6 38.76,24.42 38.86,24.23 38.96,24.05 39.06,23.85 39.16,23.65 39.26,23.45 
		39.36,23.24 39.46,23.02 39.56,22.8 39.66,22.57 39.76,22.33 39.86,22.08 39.97,21.82 40.07,21.55 40.17,21.26 40.27,20.97 
		40.37,20.65 40.47,20.32 40.57,19.96 40.67,19.58 40.77,19.16 40.87,18.69 40.97,18.16 41.07,17.53 41.17,16.7 41.28,14.83 	"/>
</g>
</svg>
